<?xml version="1.0" standalone="no"?>
<!DOCTYPE svg PUBLIC "-//W3C//DTD SVG 20010904//EN"
 "http://www.w3.org/TR/2001/REC-SVG-20010904/DTD/svg10.dtd">
<svg version="1.0" xmlns="http://www.w3.org/2000/svg"
 width="195.000000pt" height="195.000000pt" viewBox="0 0 195.000000 195.000000"
 preserveAspectRatio="xMidYMid meet">
 <rect width="100%" height="100%" fill="black" />

<metadata>
Created by potrace 1.10, written by Peter Selinger 2001-2011
</metadata>
<g transform="translate(0.000000,195.000000) scale(0.100000,-0.100000)"
fill="#ff7b00" stroke="none">
<path d="M580 1366 c0 -21 5 -24 56 -28 33 -3 60 -11 65 -19 5 -8 9 -148 9
-311 0 -329 -4 -358 -62 -400 -60 -42 -191 -19 -217 39 -17 36 0 52 48 46 54
-7 91 26 94 84 2 54 -26 93 -80 112 -36 13 -43 12 -78 -5 -52 -26 -77 -63 -83
-123 -9 -93 58 -182 163 -218 34 -11 71 -14 133 -11 98 5 146 24 199 80 62 64
63 73 63 443 l0 335 -155 0 -155 0 0 -24z"/>
<path d="M1160 1357 c0 -17 9 -28 32 -38 17 -8 41 -27 52 -42 20 -27 21 -43
23 -305 3 -250 1 -275 -12 -257 -9 11 -80 139 -158 285 l-142 265 -3 -73 -3
-72 152 -283 c83 -155 156 -288 161 -294 7 -9 38 -13 89 -13 l79 0 1 348 c0
392 2 406 62 435 27 14 37 25 37 43 l0 24 -185 0 -185 0 0 -23z"/>
</g>
</svg>
